<svg width="32" height="32" viewBox="0 0 32 32" fill="none" xmlns="http://www.w3.org/2000/svg">
<path d="M27.8763 22.0384L23.9098 26.1825C23.8236 26.2726 23.7192 26.3443 23.6033 26.3934C23.4874 26.4424 23.3623 26.4677 23.236 26.4677H4.43289C4.34317 26.4677 4.25541 26.4421 4.18038 26.3942C4.10536 26.3463 4.04634 26.278 4.01057 26.1979C3.97481 26.1177 3.96387 26.0291 3.97908 25.943C3.9943 25.8568 4.03501 25.7769 4.09622 25.713L8.06569 21.5689C8.15169 21.4791 8.25568 21.4075 8.37122 21.3584C8.48679 21.3094 8.61145 21.284 8.73751 21.2838H27.5395C27.6292 21.2838 27.717 21.3093 27.7921 21.3572C27.867 21.4052 27.926 21.4734 27.9619 21.5536C27.9976 21.6337 28.0086 21.7223 27.9933 21.8084C27.9781 21.8946 27.9374 21.9745 27.8763 22.0384ZM23.9098 13.6933C23.8236 13.6033 23.7192 13.5315 23.6033 13.4825C23.4874 13.4335 23.3623 13.4082 23.236 13.4082H4.43289C4.34317 13.4082 4.25541 13.4338 4.18038 13.4817C4.10536 13.5296 4.04634 13.5979 4.01057 13.678C3.97481 13.7582 3.96387 13.8468 3.97908 13.9329C3.9943 14.019 4.03501 14.099 4.09622 14.1629L8.06569 18.307C8.15169 18.3968 8.25568 18.4684 8.37122 18.5175C8.48679 18.5665 8.61145 18.5919 8.73751 18.5921H27.5395C27.6292 18.5921 27.717 18.5666 27.7921 18.5187C27.867 18.4707 27.926 18.4025 27.9619 18.3223C27.9976 18.2422 28.0086 18.1536 27.9933 18.0674C27.9781 17.9813 27.9374 17.9014 27.8763 17.8375L23.9098 13.6933ZM4.43289 10.7166H23.236C23.3623 10.7167 23.4874 10.6914 23.6033 10.6423C23.7192 10.5933 23.8236 10.5215 23.9098 10.4315L27.8763 6.28737C27.9374 6.22347 27.9781 6.14353 27.9933 6.0574C28.0086 5.97126 27.9976 5.88267 27.9619 5.80251C27.926 5.72235 27.867 5.65411 27.7921 5.60618C27.717 5.55825 27.6292 5.53272 27.5395 5.53271H8.73751C8.61145 5.53292 8.48679 5.55834 8.37122 5.60738C8.25568 5.65642 8.15169 5.72805 8.06569 5.81783L4.09724 9.96195C4.03609 10.0258 3.9954 10.1056 3.98015 10.1917C3.9649 10.2777 3.97576 10.3662 4.01139 10.4464C4.04703 10.5265 4.10589 10.5947 4.18076 10.6427C4.25564 10.6907 4.34326 10.7164 4.43289 10.7166Z" fill="#34d399"/>
</svg>
